<?xml version="1.0" encoding="UTF-8" standalone="no"?><!DOCTYPE svg PUBLIC "-//W3C//DTD SVG 1.1//EN" "http://www.w3.org/Graphics/SVG/1.1/DTD/svg11.dtd"><svg width="100%" height="100%" viewBox="0 0 72 72" version="1.1" xmlns="http://www.w3.org/2000/svg" xmlns:xlink="http://www.w3.org/1999/xlink" xml:space="preserve" xmlns:serif="http://www.serif.com/" style="fill-rule:evenodd;clip-rule:evenodd;stroke-linejoin:round;stroke-miterlimit:2;"><path d="M26.744,17.484l-1.05,-17.484l15.555,3.313l-0.493,14.805c9.4,0.267 18.802,0.22 28.203,-0.118l2.11,8.659c-10.094,0.591 -20.229,0.94 -30.411,1.026c4.661,14.86 13.742,25.337 30.411,32.225l-4.609,3.09c-11.63,-5.23 -20.275,-8.753 -26.643,-16.651l-0.854,25.651l-9.083,-2.267l-1.728,-28.785c-4.099,10.484 -10.964,18.625 -19.998,26.264l-7.096,-3.466c13.066,-10.41 23.368,-21.792 26.234,-36.1c-8.752,-0.126 -17.539,-0.451 -26.361,-0.987l-0,-11.624c8.603,1.103 17.206,1.913 25.813,2.449Z" style="fill:#f5eeee;"/></svg>