<?xml version="1.0" encoding="UTF-8" standalone="no"?><!DOCTYPE svg PUBLIC "-//W3C//DTD SVG 1.1//EN" "http://www.w3.org/Graphics/SVG/1.1/DTD/svg11.dtd"><svg width="100%" height="100%" viewBox="0 0 72 72" version="1.1" xmlns="http://www.w3.org/2000/svg" xmlns:xlink="http://www.w3.org/1999/xlink" xml:space="preserve" xmlns:serif="http://www.serif.com/" style="fill-rule:evenodd;clip-rule:evenodd;stroke-linejoin:round;stroke-miterlimit:2;"><path d="M31.963,0.212l0.006,-0.212l8.062,0l0.005,0.174l0.154,-0.174c4.528,16.237 12.915,24.043 29.328,24.702l-2.726,8.969c-10.585,-0.831 -19.54,-6.731 -26.221,-16.128l0.351,11.403c3.042,-0.188 6.094,-0.525 9.189,-1.011l0.553,8.065c-3.151,-0.398 -6.343,-0.672 -9.55,-0.823l0.184,5.971c6.373,-0.081 12.766,-0.296 19.244,-0.648l0.596,8.83c-6.632,-0.264 -13.132,-0.423 -19.603,-0.479l0.431,13.993c1.568,0.008 3.138,0.021 4.709,0.036l-2.296,-1.249c1.785,-5.912 1.662,-5.474 2.516,-11.007l6.662,1.898c-2.191,6.303 -2.652,6.105 -6.555,10.362c7.472,0.076 14.978,0.228 22.516,0.457l-0,8.659c-22.274,-0.915 -44.62,-0.913 -67.036,0l0,-8.659c9.167,-0.285 18.382,-0.452 27.649,-0.5l0.409,-13.989c-6.496,0.058 -13.021,0.218 -19.678,0.478l-0.87,-8.83c6.997,0.37 13.893,0.593 20.773,0.662l0.177,-6.048c-3.745,0.128 -7.474,0.424 -11.147,0.886l0.425,-8.065c3.702,0.575 7.318,0.941 10.9,1.098l0.424,-14.494c-6.315,10.27 -14.59,16.068 -25.97,16.961l-3.092,-9c16.413,-0.659 24.8,-6.263 29.328,-22.5l0.153,0.212Zm-8.655,51.069l-5.284,1.362c2.405,3.149 4.073,4.907 5.284,9l4.306,-0.307c0.138,-4.232 -1.915,-7.5 -4.306,-10.055Z" style="fill:#fff;"/></svg>