<?xml version="1.0" encoding="UTF-8" standalone="no"?><!DOCTYPE svg PUBLIC "-//W3C//DTD SVG 1.1//EN" "http://www.w3.org/Graphics/SVG/1.1/DTD/svg11.dtd"><svg width="100%" height="100%" viewBox="0 0 72 72" version="1.1" xmlns="http://www.w3.org/2000/svg" xmlns:xlink="http://www.w3.org/1999/xlink" xml:space="preserve" xmlns:serif="http://www.serif.com/" style="fill-rule:evenodd;clip-rule:evenodd;stroke-linejoin:round;stroke-miterlimit:2;"><path d="M40.297,29.584c0.405,0.977 0.843,1.93 1.313,2.861c9.801,-5.695 11.232,-14.681 13.621,-22.783l8.797,7.513c-3.398,8.815 -9.822,15.689 -19.144,20.706c5.928,8.342 14.925,14.553 26.73,18.851l-9.267,7.404c-10.275,-4.107 -17.364,-10.42 -22.615,-18.986l-0.728,20.086l-0.337,0c-6.439,5.194 -13.712,7.16 -22.724,5.081l-1.762,-7.946c6.4,1.672 11.563,2.315 15.863,1.306l-1.752,-62.81l13.046,-0l-1.041,28.717Zm-22.518,-4.81c-1.928,6.945 -7.726,10.512 -17.393,17.028l7.883,6.484c9.363,-6.652 15.05,-14.48 16.994,-24.331l0.016,-0.002l-0,-5.496l-23.988,-0l0,8.121l16.488,-1.804Z" style="fill:#fff;"/></svg>