<?xml version="1.0" encoding="UTF-8" standalone="no"?><!DOCTYPE svg PUBLIC "-//W3C//DTD SVG 1.1//EN" "http://www.w3.org/Graphics/SVG/1.1/DTD/svg11.dtd"><svg width="100%" height="100%" viewBox="0 0 72 72" version="1.1" xmlns="http://www.w3.org/2000/svg" xmlns:xlink="http://www.w3.org/1999/xlink" xml:space="preserve" xmlns:serif="http://www.serif.com/" style="fill-rule:evenodd;clip-rule:evenodd;stroke-linejoin:round;stroke-miterlimit:2;"><path d="M41.032,25.516l0.414,-25.516l-12.147,-0l0.88,25.535c-7.284,0.173 -14.656,0.663 -22.113,1.465l0.934,8.659c7.515,-0.679 14.544,-1.086 21.486,-1.212l0.892,25.867c-9.727,0.547 -19.538,1.542 -29.983,2.686l-1.395,9c23.632,-2.208 47.624,-2.256 72,0l-1.953,-10.892c-10.299,-1.106 -19.98,-1.399 -29.574,-1.165l0.414,-25.475c6.512,0.145 13.123,0.54 20.16,1.191l1.953,-8.659c-7.229,-0.841 -14.553,-1.333 -21.968,-1.484Z" style="fill:#f5eeee;"/></svg>