<?xml version="1.0" encoding="UTF-8" standalone="no"?><!DOCTYPE svg PUBLIC "-//W3C//DTD SVG 1.1//EN" "http://www.w3.org/Graphics/SVG/1.1/DTD/svg11.dtd"><svg width="100%" height="100%" viewBox="0 0 396 396" version="1.1" xmlns="http://www.w3.org/2000/svg" xmlns:xlink="http://www.w3.org/1999/xlink" xml:space="preserve" xmlns:serif="http://www.serif.com/" style="fill-rule:evenodd;clip-rule:evenodd;stroke-linecap:round;stroke-linejoin:round;stroke-miterlimit:1.5;"><g><ellipse cx="198" cy="210.126" rx="148.841" ry="148.353" style="fill:#fff;"/><path d="M198,61.773c82.148,-0 148.841,66.475 148.841,148.353c0,81.878 -66.693,148.353 -148.841,148.353c-82.148,0 -148.841,-66.475 -148.841,-148.353c-0,-81.878 66.693,-148.353 148.841,-148.353Zm0,11.04c76.045,-0 137.801,61.518 137.801,137.313c0,75.795 -61.756,137.313 -137.801,137.313c-76.045,0 -137.801,-61.518 -137.801,-137.313c-0,-75.795 61.756,-137.313 137.801,-137.313Z"/><path d="M128.589,134.627l22.149,-30.964l13.266,17.96l-35.415,13.004Z"/><path d="M126.494,207.78l113.151,69.859l-12.999,18.16l-100.152,-88.019Z"/><path d="M256.213,256.263l-51.679,-126.586l21.026,-6.883l30.653,133.469Z"/><path d="M174.227,288.116l98.775,-94.516l13.777,17.557l-112.552,76.959Z"/><path d="M181.38,140.309l-33.887,132.379l-20.847,-7.424l54.734,-124.955Z"/><path d="M257.026,170.012l-132.625,7.062l0.684,-22.452l131.941,15.39Z"/><path d="M246.755,120.465l36.892,13.753l-13.125,18.066l-23.767,-31.819Z"/><path d="M103.393,253.514l-23.424,-29.447l20.521,-8.312l2.903,37.759Z"/><path d="M210.231,314.561l-34.964,12.773l-0.951,-22.441l35.915,9.668Z"/><path d="M296.472,229.331l2.199,40.312l-21.525,-5.044l19.326,-35.268Z"/><g><ellipse cx="198.984" cy="77.916" rx="65.007" ry="66.105" style="fill:#ebebeb;stroke:#000;stroke-width:7.96px;"/><ellipse cx="198.984" cy="77.916" rx="52.952" ry="53.846" style="fill:#297062;stroke:#000;stroke-width:7.96px;"/></g><g><ellipse cx="74.007" cy="169.981" rx="65.007" ry="66.105" style="fill:#ebebeb;stroke:#000;stroke-width:7.96px;"/><ellipse cx="74.007" cy="169.981" rx="52.952" ry="53.846" style="fill:#4d4b71;stroke:#000;stroke-width:7.96px;"/></g><g><ellipse cx="321.993" cy="169.981" rx="65.007" ry="66.105" style="fill:#ebebeb;stroke:#000;stroke-width:7.96px;"/><ellipse cx="321.993" cy="169.981" rx="52.952" ry="53.846" style="fill:#7e2424;stroke:#000;stroke-width:7.96px;"/></g><g><ellipse cx="121.734" cy="318.084" rx="65.007" ry="66.105" style="fill:#ebebeb;stroke:#000;stroke-width:7.96px;"/><ellipse cx="121.734" cy="318.084" rx="52.952" ry="53.846" style="fill:#90555d;stroke:#000;stroke-width:7.96px;"/></g><g><ellipse cx="276.234" cy="318.084" rx="65.007" ry="66.105" style="fill:#ebebeb;stroke:#000;stroke-width:7.96px;"/><ellipse cx="276.234" cy="318.084" rx="52.952" ry="53.846" style="fill:#987e20;stroke:#000;stroke-width:7.96px;"/></g><g><path d="M203.579,47.38l-14.044,-3.068l3.779,64.558l8.202,2.099l2.063,-63.589Z" style="fill:#fff;"/><path d="M230.503,68.993l-1.905,-8.016c-20.474,0.753 -40.947,-0.055 -61.421,-2.745l-0,10.761c21.326,1.329 42.423,1.255 63.326,0Z" style="fill:#fff;"/><path d="M195.391,65.494l-3.715,-4.517c0.594,17.609 -10.053,30.643 -24.384,42.35l6.407,3.209c12.308,-10.671 20.157,-22.4 21.692,-41.042Z" style="fill:#fff;"/><path d="M195.173,72.672l5.765,-11.695c3.246,18.613 11.434,31.117 29.565,38.799l-4.161,2.861c-15.708,-7.243 -25.384,-10.95 -31.169,-29.965Z" style="fill:#fff;"/></g><g><path d="M43.201,153.779l-3.827,11.095l55.223,17.981l2.615,-7.583l-54.011,-21.493Z" style="fill:#fff;"/><path d="M58.107,174.433l-4.67,-1.666l-7.036,20.399l6.9,2.462l4.806,-21.195Z" style="fill:#fff;"/><path d="M63.713,139.425l-8.964,5.205c6.683,4.849 14.57,9.058 15.734,21.043l5.5,-1.639c-1.266,-10.412 -5.311,-18.65 -12.27,-24.609Z" style="fill:#fff;"/><path d="M58.04,174.409l-3.821,5.257c7.389,3.596 8.689,9.778 11.753,21.345l7.822,-4.738c-2.914,-10.006 -7.916,-17.227 -15.754,-21.864Z" style="fill:#fff;"/><path d="M97.077,175.457l-5.068,-0.249c2.923,6.264 0.827,12.314 -4.512,20.306l7.269,0.909c4.431,-7.068 4.877,-13.88 2.311,-20.966Z" style="fill:#fff;"/><path d="M61.14,169.668l-4.299,-7.074c16.799,3.233 30.866,-3.088 42.711,-17.632l3.572,10.125c-10.761,12.401 -24.1,15.549 -41.984,14.581Z" style="fill:#fff;"/></g><g><path d="M95.257,345.517l5.702,4.599l39.263,-47.422l-8.568,-6.911l-36.397,49.734Z" style="fill:#fff;"/><path d="M114.794,276.912l-4.858,6.228c15.619,13.402 31.423,26.148 47.41,38.24l4.858,-6.228c-16.366,-12.13 -32.171,-24.876 -47.41,-38.24Z" style="fill:#fff;"/><path d="M108.002,297.997l-4.532,6.691c12.578,9.059 24.201,18.461 35.752,28.836l4.338,-6.847c-12.43,-9.248 -23.88,-18.468 -35.558,-28.68Z" style="fill:#fff;"/><path d="M107.932,313.559l-4.133,6.116c7.989,4.597 14.784,10.057 21.14,17.051l4.826,-5.558c-7.894,-4.87 -15.375,-10.898 -21.833,-17.609Z" style="fill:#fff;"/><path d="M135.852,318.174l4.501,2.034c0.066,-3.637 -0.128,-5.852 1.312,-9.487l-3.217,-2.236c-2.472,2.966 -2.853,6.487 -2.596,9.689Z" style="fill:#fff;"/><path d="M115.155,300.026l3.647,5.165c3.708,-3.492 3.375,-3.247 7.953,-6.481l-1.01,-2.42c-5.286,0.866 -5.458,0.422 -10.59,3.736Z" style="fill:#fff;"/><path d="M102.862,344.018l-7.717,1.408c5.906,-14.261 4.354,-24.66 -6.885,-34.496l6.959,-4.896c9.467,8.948 11.666,22.835 7.643,37.984Z" style="fill:#fff;"/><path d="M101.386,343.613l-0.315,6.593c12.312,-9.095 21.387,-8.342 33.365,0.547l2.862,-8.236c-10.723,-7.337 -22.321,-6.337 -35.912,1.096Z" style="fill:#fff;"/></g><g><path d="M293.419,352.74l8.885,-6.538l-38.147,-49.89l-6.334,4.66l35.596,51.768Z" style="fill:#fff;"/><path d="M232.96,315.632l7.193,7.05c18.92,-11 33.051,-23.484 49.214,-38.358l-3.743,-7.446c-16.117,14.363 -33.64,27.312 -52.664,38.754Z" style="fill:#fff;"/><path d="M260.207,336.767l3.155,7.492c14.074,-8.018 27.456,-17.905 40.181,-29.568l-5.267,-5.938c-12.518,11.086 -23.779,19.418 -38.069,28.014Z" style="fill:#fff;"/></g><g><path d="M358.405,162.679l-6.372,-8.459l-27.662,9.194l2.434,7.574l31.6,-8.309Z" style="fill:#fff;"/><path d="M346.479,186.276l4.692,-7.726l-18.51,-5.105l-3.364,5.296l17.182,7.535Z" style="fill:#fff;"/><path d="M339.678,152.669l-0.193,-7.644c-4.994,4.033 -11.052,4.69 -18.638,0.485l-0.562,5.877c6.67,3.419 13.644,5.08 19.393,1.282Z" style="fill:#fff;"/><path d="M333.458,160.511l8.951,5.712c-17.316,6.552 -30.982,19.442 -35.129,38.84l-4.478,-2.134c4.158,-16.91 13.408,-33.27 30.656,-42.418Z" style="fill:#fff;"/><path d="M335.756,167.66l6.19,-8.55c-17.779,5.113 -33.527,2.337 -48.141,-10.825l-5.757,8.743c13.177,11.148 28.476,13.609 47.708,10.632Z" style="fill:#fff;"/></g></g></svg>