<?xml version="1.0" encoding="UTF-8" standalone="no"?><!DOCTYPE svg PUBLIC "-//W3C//DTD SVG 1.1//EN" "http://www.w3.org/Graphics/SVG/1.1/DTD/svg11.dtd"><svg width="100%" height="100%" viewBox="0 0 72 72" version="1.1" xmlns="http://www.w3.org/2000/svg" xmlns:xlink="http://www.w3.org/1999/xlink" xml:space="preserve" xmlns:serif="http://www.serif.com/" style="fill-rule:evenodd;clip-rule:evenodd;stroke-linejoin:round;stroke-miterlimit:2;"><path d="M40.038,23.66c2.013,17.611 10.863,33.448 28.267,43.017l-3.82,3.816c-12.194,-7.189 -23.077,-17.119 -29.329,-30.112c-4.537,12.993 -12.064,22.923 -24.258,30.112l-7.203,-8.623c14.927,-8.208 23.342,-19.193 26.673,-32.999l0,-23.688l11.156,-3.676l-1.486,22.153Zm-15.638,-6.543l-8.129,-2.279c2.503,6.331 1.073,12.642 -6.023,18.916l6.003,2.467c5.944,-5.607 10.141,-12.089 8.149,-19.104Zm37.832,4.027l-6.504,-7.222l-11.874,16.979l4.407,5.099l13.971,-14.856Z" style="fill:#f5eeee;"/></svg>